<?xml version="1.0" standalone="no"?>
<!DOCTYPE svg PUBLIC "-//W3C//DTD SVG 20010904//EN"
 "http://www.w3.org/TR/2001/REC-SVG-20010904/DTD/svg10.dtd">
<svg version="1.0" xmlns="http://www.w3.org/2000/svg"
 width="1182.000000pt" height="1182.000000pt" viewBox="0 0 1182.000000 1182.000000"
 preserveAspectRatio="xMidYMid meet">

<g transform="translate(0.000000,1182.000000) scale(0.100000,-0.100000)"
fill="#000000" stroke="none">
<path d="M5610 9954 c-717 -64 -1328 -268 -1890 -632 -487 -315 -868 -691
-1184 -1167 -180 -271 -301 -502 -409 -785 -112 -292 -165 -496 -232 -892 l-4
-28 198 0 199 0 6 28 c3 15 10 56 16 92 80 470 302 1006 589 1420 239 345 586
692 931 931 1096 760 2536 857 3726 253 329 -167 613 -370 884 -631 544 -524
904 -1185 1051 -1925 l33 -168 198 0 198 0 -6 43 c-91 623 -343 1255 -697
1752 -267 374 -617 724 -982 981 -466 328 -1007 558 -1560 664 -256 49 -397
61 -715 65 -168 1 -325 1 -350 -1z"/>
<path d="M4660 6830 l0 -760 -289 0 -288 0 -88 -252 c-48 -139 -90 -256 -94
-260 -3 -4 -112 405 -240 910 -129 504 -239 933 -244 952 -9 32 -25 -8 -243
-590 -129 -344 -246 -655 -260 -692 l-26 -68 -514 0 -514 0 0 -190 0 -190 644
0 644 0 93 250 c52 138 96 250 99 250 3 0 117 -439 255 -976 186 -731 251
-971 257 -953 5 13 118 339 251 724 l244 700 361 3 362 2 0 755 0 755 318 0
c344 0 434 -9 575 -55 277 -90 500 -283 631 -543 49 -97 101 -255 121 -367 20
-112 30 -365 18 -467 l-9 -78 501 0 502 0 93 250 c51 138 97 247 101 243 4 -5
118 -442 254 -973 135 -530 247 -965 248 -966 1 -1 115 323 252 719 l250 722
513 3 512 2 0 190 0 190 -644 0 -644 0 -11 -32 c-7 -18 -46 -132 -88 -253 -42
-121 -79 -223 -83 -228 -3 -4 -113 413 -244 925 -131 513 -242 941 -245 950
-4 11 -104 -243 -265 -672 l-258 -690 -164 0 -164 0 0 43 c0 23 -7 86 -15 139
-54 363 -200 666 -430 900 -232 235 -506 371 -850 423 -79 12 -212 15 -642 15
l-543 0 0 -760z"/>
<path d="M1904 5288 c3 -13 15 -75 26 -138 65 -355 191 -722 364 -1065 201
-395 429 -709 751 -1030 643 -644 1429 -1032 2340 -1156 191 -26 650 -37 846
-20 959 83 1804 466 2488 1126 600 580 1007 1329 1161 2140 12 61 23 122 26
138 l6 27 -201 0 c-111 0 -201 -2 -201 -5 0 -3 -12 -60 -26 -127 -119 -569
-365 -1093 -727 -1546 -130 -163 -406 -439 -569 -569 -539 -431 -1174 -696
-1868 -780 -201 -24 -629 -24 -830 0 -1048 127 -1955 667 -2570 1527 -208 291
-385 646 -498 1001 -32 102 -90 335 -118 477 -4 22 -5 22 -204 22 l-200 0 4
-22z"/>
<path d="M4660 4794 l0 -515 578 3 c554 4 581 5 686 26 225 48 442 143 607
267 169 126 333 324 431 519 35 70 88 197 88 211 0 3 -98 5 -218 5 l-219 0
-19 -42 c-57 -128 -221 -320 -347 -407 -75 -51 -244 -128 -332 -150 -136 -35
-210 -41 -532 -41 l-313 0 0 320 0 320 -205 0 -205 0 0 -516z"/>
</g>
</svg>
