<?xml version="1.0" standalone="no"?>
<!DOCTYPE svg PUBLIC "-//W3C//DTD SVG 20010904//EN"
 "http://www.w3.org/TR/2001/REC-SVG-20010904/DTD/svg10.dtd">
<svg version="1.0" xmlns="http://www.w3.org/2000/svg"
 width="1182.000000pt" height="1182.000000pt" viewBox="0 0 1182.000000 1182.000000"
 preserveAspectRatio="xMidYMid meet">
<metadata>
Created by potrace 1.16, written by Peter Selinger 2001-2019
</metadata>
<g transform="translate(0.000000,1182.000000) scale(0.100000,-0.100000)"
fill="#000000" stroke="none">
<path d="M5650 9964 c-318 -28 -524 -61 -765 -124 -560 -145 -1062 -397 -1525
-766 -173 -138 -476 -441 -614 -614 -369 -463 -619 -961 -766 -1525 -41 -157
-90 -405 -90 -456 l0 -29 204 0 204 0 12 73 c58 357 196 766 367 1087 446 836
1189 1467 2075 1763 349 117 675 173 1063 184 1004 27 1950 -351 2665 -1067
536 -535 888 -1208 1016 -1937 l17 -103 207 0 207 0 -13 89 c-121 816 -512
1598 -1099 2200 -171 175 -305 294 -479 424 -589 440 -1272 708 -2011 787
-101 11 -592 21 -675 14z"/>
<path d="M4660 6836 l0 -766 -293 0 -293 0 -84 -245 c-47 -135 -87 -245 -90
-245 -3 0 -113 423 -245 940 -132 517 -243 940 -246 940 -4 0 -123 -312 -266
-692 l-260 -693 -517 -3 -516 -2 2 -188 3 -187 651 -3 651 -2 90 242 c50 134
94 236 97 228 3 -8 113 -440 246 -960 132 -520 243 -952 246 -960 4 -12 6 -12
14 -1 4 8 120 337 257 732 l248 719 363 0 362 0 0 755 0 755 259 0 c375 0 519
-19 697 -90 345 -138 572 -427 667 -848 18 -84 21 -128 22 -335 l0 -237 505 0
505 0 90 240 c49 132 92 234 96 227 4 -6 116 -439 249 -962 133 -522 246 -954
250 -958 8 -10 10 -5 296 820 l219 633 513 0 512 0 0 190 0 190 -654 0 -654 0
-82 -240 c-45 -132 -86 -242 -89 -245 -4 -2 -114 416 -245 928 -131 513 -241
936 -246 940 -4 5 -19 -22 -34 -60 -14 -37 -131 -349 -260 -693 l-234 -625
-155 -3 -154 -2 -7 72 c-39 436 -227 833 -511 1082 -205 179 -430 289 -711
348 -105 21 -132 22 -686 26 l-578 3 0 -765z"/>
<path d="M1912 5203 c126 -717 448 -1392 929 -1948 122 -142 373 -383 514
-496 612 -488 1265 -765 2050 -870 148 -20 213 -23 500 -23 363 0 510 13 816
75 528 106 1059 333 1504 644 352 245 714 601 967 950 364 501 625 1128 716
1718 l9 57 -207 0 -207 0 -17 -87 c-286 -1468 -1445 -2620 -2911 -2892 -289
-54 -673 -75 -950 -52 -886 74 -1672 437 -2295 1061 -531 530 -891 1217 -1014
1933 l-7 37 -208 0 -208 0 19 -107z"/>
<path d="M4660 4790 l0 -520 518 0 c626 0 718 8 951 86 393 131 712 429 882
824 20 47 40 95 43 108 l7 22 -228 0 -228 -1 -18 -39 c-33 -72 -114 -186 -182
-259 -159 -168 -360 -274 -602 -316 -64 -11 -167 -15 -404 -15 l-319 0 0 315
0 315 -210 0 -210 0 0 -520z"/>
</g>
</svg>
